<?xml version="1.0" encoding="UTF-8" standalone="no"?>
<!-- Created with Inkscape (http://www.inkscape.org/) -->

<svg
   version="1.1"
   id="svg1"
   width="776"
   height="251.42667"
   viewBox="0 0 776 251.42667"
   sodipodi:docname="torvan logo_web colours.eps"
   xmlns:inkscape="http://www.inkscape.org/namespaces/inkscape"
   xmlns:sodipodi="http://sodipodi.sourceforge.net/DTD/sodipodi-0.dtd"
   xmlns="http://www.w3.org/2000/svg"
   xmlns:svg="http://www.w3.org/2000/svg">
  <defs
     id="defs1" />
  <sodipodi:namedview
     id="namedview1"
     pagecolor="#ffffff"
     bordercolor="#000000"
     borderopacity="0.25"
     inkscape:showpageshadow="2"
     inkscape:pageopacity="0.0"
     inkscape:pagecheckerboard="0"
     inkscape:deskcolor="#d1d1d1">
    <inkscape:page
       x="0"
       y="0"
       inkscape:label="1"
       id="page1"
       width="776"
       height="251.42667"
       margin="0"
       bleed="0" />
  </sodipodi:namedview>
  <g
     id="g1"
     inkscape:groupmode="layer"
     inkscape:label="1">
    <g
       id="group-R5">
      <path
         id="path2"
         d="m 1172.3,1301.94 c 0,-54.04 27.59,-75.87 74.72,-75.87 31.04,0 58.61,6.9 86.2,20.71 v -113.76 c -34.49,-19.55 -73.56,-31.05 -125.27,-31.05 -102.27,0 -174.66,44.81 -174.66,178.14 v 319.45 h -76.989 v 119.5 h 76.989 v 166.63 h 139.01 v -166.63 h 163.21 v -119.5 H 1172.3 v -297.62"
         style="fill:#231f20;fill-opacity:1;fill-rule:nonzero;stroke:none"
         transform="matrix(0.13333333,0,0,-0.13333333,0,251.42667)" />
      <path
         id="path3"
         d="m 1698.17,1609.89 c -111.45,0 -182.71,-87.32 -182.71,-194.2 0,-108.01 76.98,-196.5 185.02,-196.5 112.6,0 183.86,87.34 183.86,194.19 0,108.03 -77,196.51 -186.17,196.51 z m 0,-511.37 c -185,0 -321.76,141.36 -321.76,314.86 0,174.67 137.9,318.33 324.07,318.33 186.15,0 322.88,-141.35 322.88,-316.02 0,-173.51 -137.89,-317.17 -325.19,-317.17"
         style="fill:#231f20;fill-opacity:1;fill-rule:nonzero;stroke:none"
         transform="matrix(0.13333333,0,0,-0.13333333,0,251.42667)" />
      <path
         id="path4"
         d="m 2234.92,1112.32 h -139.06 v 606.74 h 139.06 v -136.73 c 37.91,90.76 108,152.8 214.88,148.24 v -147.11 h -8.04 c -121.82,0 -206.84,-79.28 -206.84,-240.16 v -230.98"
         style="fill:#231f20;fill-opacity:1;fill-rule:nonzero;stroke:none"
         transform="matrix(0.13333333,0,0,-0.13333333,0,251.42667)" />
      <path
         id="path5"
         d="m 2989.97,1719.06 h 145.95 l -248.21,-611.33 h -125.29 l -249.35,611.33 h 149.4 l 163.17,-445.86 164.33,445.86"
         style="fill:#231f20;fill-opacity:1;fill-rule:nonzero;stroke:none"
         transform="matrix(0.13333333,0,0,-0.13333333,0,251.42667)" />
      <path
         id="path6"
         d="m 3560.01,1369.72 c -35.63,13.79 -85.06,24.14 -139.06,24.14 -87.34,0 -139.04,-35.65 -139.04,-97.68 v -2.3 c 0,-57.46 51.7,-89.63 117.17,-89.63 91.95,0 160.93,51.72 160.93,127.54 z m -3.48,-257.4 v 74.71 c -41.33,-49.44 -104.57,-87.34 -196.48,-87.34 -114.93,0 -216.05,65.47 -216.05,187.29 v 2.32 c 0,130.98 104.57,195.34 245.91,195.34 73.56,0 120.66,-10.35 167.78,-25.29 v 14.94 c 0,83.89 -52.86,129.86 -149.4,129.86 -67.78,0 -118.35,-14.94 -173.5,-37.93 l -37.94,111.48 c 66.66,29.86 132.15,50.56 231,50.56 179.23,0 266.57,-94.24 266.57,-256.26 v -359.68 h -137.89"
         style="fill:#231f20;fill-opacity:1;fill-rule:nonzero;stroke:none"
         transform="matrix(0.13333333,0,0,-0.13333333,0,251.42667)" />
      <path
         id="path7"
         d="m 3976.05,1112.32 h -139.03 v 606.74 h 139.03 v -94.24 c 39.08,57.47 95.4,106.89 189.59,106.89 136.76,0 216.08,-91.94 216.08,-233.28 v -386.11 h -139.04 v 344.74 c 0,94.22 -47.15,148.24 -129.89,148.24 -80.41,0 -136.74,-56.32 -136.74,-150.53 v -342.45"
         style="fill:#231f20;fill-opacity:1;fill-rule:nonzero;stroke:none"
         transform="matrix(0.13333333,0,0,-0.13333333,0,251.42667)" />
      <path
         id="path8"
         d="m 2420.31,797.398 c 132.18,0 212.6,-83.867 212.6,-232.109 v -387.25 h -139.05 v 344.762 c 0,96.488 -44.83,148.211 -122.96,148.211 -75.84,0 -129.83,-52.871 -129.83,-150.532 V 178.039 h -139.05 v 345.883 c 0,94.219 -45.98,147.09 -122.99,147.09 -76.98,0 -129.83,-57.453 -129.83,-151.66 V 178.039 h -139.05 v 606.723 h 139.05 v -91.91 c 39.06,54.019 91.93,104.546 185,104.546 87.35,0 148.26,-42.468 180.41,-106.828 49.42,64.36 113.77,106.828 205.7,106.828"
         style="fill:#231f20;fill-opacity:1;fill-rule:nonzero;stroke:none"
         transform="matrix(0.13333333,0,0,-0.13333333,0,251.42667)" />
      <path
         id="path9"
         d="m 3148.98,523.922 c -9.18,89.637 -62.02,159.726 -153.96,159.726 -85.04,0 -144.78,-65.507 -157.44,-159.726 z M 3013.4,278.012 c 67.81,0 116.08,25.258 164.35,72.437 l 81.56,-72.437 c -57.44,-68.953 -136.73,-113.75 -248.21,-113.75 -175.79,0 -311.42,127.527 -311.42,315.988 0,174.691 122.99,317.148 296.49,317.148 193.06,0 290.72,-151.636 290.72,-327.449 0,-12.679 -1.12,-24.16 -2.26,-37.969 h -445.88 c 16.07,-98.789 85.04,-153.968 174.65,-153.968"
         style="fill:#231f20;fill-opacity:1;fill-rule:nonzero;stroke:none"
         transform="matrix(0.13333333,0,0,-0.13333333,0,251.42667)" />
      <path
         id="path10"
         d="m 3665.05,676.762 c -95.36,0 -174.65,-73.551 -174.65,-195.364 0,-119.5 80.44,-195.328 174.65,-195.328 93.09,0 175.83,77.008 175.83,195.328 0,118.383 -82.74,195.364 -175.83,195.364 z m 173.53,-498.723 v 101.133 c -44.82,-63.211 -108.02,-113.781 -206.84,-113.781 -142.49,0 -281.55,113.781 -281.55,316.007 0,202.25 136.75,316 281.55,316 100,0 163.17,-50.527 206.84,-106.828 v 326.34 h 139.04 V 178.039 h -139.04"
         style="fill:#231f20;fill-opacity:1;fill-rule:nonzero;stroke:none"
         transform="matrix(0.13333333,0,0,-0.13333333,0,251.42667)" />
      <path
         id="path11"
         d="m 4136.3,178.039 v 606.723 h 139.03 V 178.039 Z m -5.75,699.852 v 132.159 h 149.39 V 877.891 h -149.39"
         style="fill:#231f20;fill-opacity:1;fill-rule:nonzero;stroke:none"
         transform="matrix(0.13333333,0,0,-0.13333333,0,251.42667)" />
      <path
         id="path12"
         d="m 4691.35,164.262 c -180.4,0 -313.71,141.34 -313.71,314.867 0,173.5 133.31,318.269 314.89,318.269 114.92,0 186.15,-42.468 242.43,-104.546 l -86.16,-93.071 c -42.52,44.828 -87.34,75.84 -157.45,75.84 -101.13,0 -174.65,-87.34 -174.65,-194.223 0,-109.148 74.71,-196.476 181.58,-196.476 65.48,0 113.75,31.008 157.42,75.828 l 83.89,-82.738 c -59.76,-66.66 -129.86,-113.75 -248.24,-113.75"
         style="fill:#231f20;fill-opacity:1;fill-rule:nonzero;stroke:none"
         transform="matrix(0.13333333,0,0,-0.13333333,0,251.42667)" />
      <path
         id="path13"
         d="m 5395.9,435.441 c -35.64,13.797 -85.06,24.129 -139.06,24.129 -87.34,0 -139.04,-35.621 -139.04,-97.672 v -2.269 c 0,-57.481 51.7,-89.668 117.2,-89.668 91.94,0 160.9,51.699 160.9,127.559 z m -3.45,-257.402 v 74.711 c -41.4,-49.418 -104.57,-87.359 -196.51,-87.359 -114.9,0 -216.05,65.519 -216.05,187.3 V 355 c 0,131.031 104.57,195.359 245.91,195.359 73.56,0 120.66,-10.347 167.8,-25.257 v 14.91 c 0,83.91 -52.85,129.847 -149.42,129.847 -67.77,0 -118.35,-14.918 -173.5,-37.91 l -37.95,111.473 c 66.68,29.898 132.19,50.547 230.98,50.547 179.29,0 266.63,-94.188 266.63,-256.239 V 178.039 h -137.89"
         style="fill:#231f20;fill-opacity:1;fill-rule:nonzero;stroke:none"
         transform="matrix(0.13333333,0,0,-0.13333333,0,251.42667)" />
      <path
         id="path14"
         d="M 5680.97,178.039 V 1016.91 H 5820 V 178.039 h -139.03"
         style="fill:#231f20;fill-opacity:1;fill-rule:nonzero;stroke:none"
         transform="matrix(0.13333333,0,0,-0.13333333,0,251.42667)" />
      <path
         id="path15"
         d="m 440.715,705.07 264.473,-0.05 V 440.609 H 881.453 V 705.07 l 264.397,-0.05 -0.02,176.289 H 881.48 l -0.027,264.401 H 705.188 V 881.309 H 440.715 V 705.07"
         style="fill:#6bc866;fill-opacity:1;fill-rule:nonzero;stroke:none"
         transform="matrix(0.13333333,0,0,-0.13333333,0,251.42667)" />
      <path
         id="path16"
         d="m 440.684,705.02 0.031,177.41 c -145.192,0 -263.352,118.07 -263.32,263.25 0,145.21 118.128,263.3 263.32,263.34 145.168,0 263.293,-118.13 263.293,-263.34 v 0 h 177.387 v 0 c 0,243.02 -197.665,440.73 -440.711,440.73 C 197.664,1586.41 0,1388.7 0,1145.68 0,902.73 197.719,705.02 440.684,705.02"
         style="fill:#273072;fill-opacity:1;fill-rule:nonzero;stroke:none"
         transform="matrix(0.13333333,0,0,-0.13333333,0,251.42667)" />
      <path
         id="path17"
         d="M 1145.83,881.309 V 703.941 c 145.24,0 263.37,-118.152 263.37,-263.39 0,-145.063 -118.17,-263.192 -263.35,-263.192 -145.2,0 -263.26,118.082 -263.26,263.25 v 0.032 H 705.141 l 0.047,-0.032 C 705.188,197.68 902.859,-0.03125 1145.83,0 c 243.05,-0.0898438 440.77,197.68 440.71,440.609 0.06,243.039 -197.66,440.7 -440.71,440.7"
         style="fill:#b0e19d;fill-opacity:1;fill-rule:nonzero;stroke:none"
         transform="matrix(0.13333333,0,0,-0.13333333,0,251.42667)" />
    </g>
  </g>
</svg>
